<svg width="270" height="250" viewBox="0 0 270 250" fill="none" xmlns="http://www.w3.org/2000/svg">
<path d="M102.298 237.075C87.9242 242.168 73.4113 244.521 57.9311 241.58C40.6768 238.3 25.711 223.534 17.2548 208.809C14.1129 203.339 11.6115 197.228 11.9384 190.93C12.6989 176.381 26.4437 174.755 38.1109 177.108C44.6877 178.432 50.7266 181.444 56.6969 184.427C66.6091 189.384 78.2363 191.822 87.1229 198.692C90.1048 201.004 92.3442 203.782 95.8092 205.464C101.199 208.083 107.352 209.319 112.888 211.702C117.615 213.747 122.898 217.111 122.905 222.259C122.906 227.539 117.398 230.903 112.558 233.005C109.132 234.502 105.722 235.868 102.298 237.075Z" fill="url(#paint0_linear)"/>
<path d="M49.3907 49.41C72.9369 14.71 121.626 0.777297 161.092 13.8238C180.122 20.1181 196.071 33.2247 210.782 46.8306C223.748 58.8223 236.328 71.7565 245.183 87.1725C251.229 97.6952 255.557 110.309 258.613 122.085C263.181 139.717 259.032 162.436 236.24 160.771C230.892 160.381 226.266 158.458 221.264 156.776C217.219 155.412 213.254 156.23 209.054 155.564C198.481 153.89 188.296 149.997 178.665 145.438C159.037 136.138 141.103 123.503 120.917 115.353C104.375 108.683 86.7095 105.24 68.8732 105.208C61.3485 105.196 53.4365 105.722 46.7054 102.358C30.1152 94.0571 37.5757 71.675 43.7716 59.0842C45.4131 55.7305 47.2909 52.4976 49.3907 49.41Z" fill="url(#paint1_linear)"/>
<path d="M234.007 54.6475C237.883 58.1585 253.114 67.7432 253.407 56.4955C253.476 53.6934 252.205 50.9727 250.475 48.9206C248.497 46.5653 246.253 45.3298 244.708 42.5857C242.817 39.2724 240.665 36.1584 238.279 33.284C233.401 27.3012 227.706 21.7734 220.797 19.3105C215.95 17.5851 207.745 18.019 205.443 24.2302C202.089 33.2721 216.43 34.9289 220.803 38.224C224.954 41.343 227.304 46.7023 230.592 50.9615C231.631 52.3045 232.774 53.5384 234.007 54.6475Z" fill="url(#paint2_linear)"/>
<path d="M162.607 43.3686C170.817 48.2028 176.977 55.4388 184.463 61.2665C196.927 70.9674 214.01 72.952 228.303 79.6983C242.877 86.5816 253.881 97.2789 258.857 112.697C265.285 132.597 265.896 156.264 260.435 176.723C254.42 199.243 240.297 214.203 219.646 224.179C199.008 234.15 176.145 238.802 153.342 239.762C151.142 239.857 148.945 239.908 146.739 239.922C97.202 240.21 31.2647 222.773 14.3993 169.557C14.2447 169.071 14.0966 168.585 13.948 168.092C12.2102 162.163 11.1884 156.048 10.9044 149.876C9.84361 127.996 13.6729 103.847 21.3437 83.3358C26.503 69.527 37.6127 57.8511 49.3194 49.5317C65.7672 37.8441 85.8359 34.8613 105.81 33.459C120.601 32.4212 137.236 32.042 151.223 37.6996C155.154 39.3022 158.959 41.1972 162.607 43.3686Z" fill="url(#paint3_linear)"/>
<path d="M193.966 234.12C130.471 252.582 80.419 236.142 61.8996 224.933L44.7029 211.745L50.6556 201.855L87.6946 198.558L149.206 195.261L198.812 205.152L208.31 200.322L210.004 217.822C212.262 231.371 210.568 227.984 193.966 234.12Z" fill="#FB4C47"/>
<path d="M75.9011 226.278H184.631C184.631 226.278 194.314 145.155 179.999 137.243C165.686 129.331 98.7527 130.985 83.9173 137.742C69.082 144.499 75.9011 226.278 75.9011 226.278Z" fill="#FB4C47"/>
<path d="M80.9216 120.156C80.7 120.156 80.476 120.075 80.3026 119.908C80.2062 119.819 70.8195 110.694 77.2917 94.6289C79.5607 88.9957 81.6732 85.0385 83.5351 81.5492C86.8977 75.2529 89.3257 70.7025 90.4409 60.6805C90.4963 60.1861 90.9492 59.8389 91.4381 59.8823C91.9343 59.9377 92.2908 60.3863 92.2354 60.8806C91.0816 71.2499 88.4537 76.1716 85.1297 82.4028C83.287 85.8512 81.2011 89.7626 78.9658 95.3041C72.9512 110.238 81.4564 118.512 81.5407 118.596C81.9044 118.939 81.9213 119.51 81.5768 119.872C81.401 120.06 81.1625 120.156 80.9216 120.156Z" fill="#000C3E"/>
<path d="M141.308 24.6794C141.05 31.5448 135.284 36.903 128.426 36.645C121.568 36.387 116.216 30.6139 116.474 23.7485C116.732 16.8831 122.498 11.5249 129.356 11.7829C136.213 12.041 141.566 17.814 141.308 24.6794Z" fill="#000C3E"/>
<path d="M80.0869 115.341C80.0869 115.341 83.187 123.108 97.8464 126.812C112.506 130.516 124.545 125.971 135.709 130.953C146.876 135.937 163.824 131.698 167.451 127.111C171.076 122.525 174.203 69.0748 165.804 59.4748C157.405 49.8724 110.581 39.0088 99.5687 48.7535C88.556 58.4982 74.0073 108.861 80.0869 115.341Z" fill="#000C3E"/>
<path d="M172.212 76.288C171.364 98.9123 152.359 116.566 129.758 115.72C107.16 114.871 86.1843 94.8297 87.0322 72.2054C87.8776 49.5812 107.061 33.1568 129.659 34.0056C152.261 34.8521 173.06 53.6638 172.212 76.288Z" fill="#000C3E"/>
<path d="M148.088 110.565C148.088 110.565 150.745 142.49 148.088 146.037C145.431 149.584 128.599 146.924 124.172 146.037C119.742 145.152 117.969 110.565 120.629 110.565C123.285 110.565 147.578 103.446 148.088 110.565Z" fill="#FFCEB0"/>
<path d="M97.859 73.2153C97.859 73.2153 99.5427 122.976 133.147 125.124C166.751 127.273 166.717 57.1623 154.556 50.4947C142.394 43.8246 91.6469 45.0761 97.859 73.2153Z" fill="#FFCEB0"/>
<path d="M137.794 83.8678C137.794 83.8678 144.211 99.1829 142.561 100.198C140.909 101.213 136.077 101.032 134.774 99.9063C133.47 98.7802 135.169 82.1533 137.794 83.8678Z" fill="#EE9B68"/>
<path d="M124.319 46.6791C124.319 46.6791 112.27 52.5124 109.977 63.4628C107.684 74.4156 108.872 102.456 96.1053 101.168C96.1053 101.168 71.3845 45.6759 124.319 46.6791Z" fill="#000C3E"/>
<path d="M130.671 46.9171C129.578 47.7008 143.095 47.6695 150.823 57.0476C158.552 66.4258 160.388 89.8651 161.582 90.3015C162.777 90.7356 167.549 61.2556 159.077 52.3983C150.603 43.5435 136.893 42.4583 130.671 46.9171Z" fill="#000C3E"/>
<path d="M121.093 120.587C121.093 120.587 134.168 128.029 147.744 121.074C147.744 121.074 148.799 129.427 147.744 131.354C146.686 133.281 125.186 134.658 120.954 125.161C120.954 125.161 119.872 120.175 121.093 120.587Z" fill="#EE9B68"/>
<path d="M158.394 92.2879C158.394 92.2879 161.036 79.8086 165.444 84.1974C169.85 88.5863 165.728 101.639 161.33 102.864C156.932 104.09 155.92 98.7313 158.394 92.2879Z" fill="#FFCEB0"/>
<path d="M105.683 90.3109C105.683 90.3109 103.407 77.6483 97.4787 81.6489C91.5508 85.6495 95.6408 99.0114 101.085 100.605C106.526 102.197 108.258 96.9448 105.683 90.3109Z" fill="#FFCEB0"/>
<path d="M144.829 76.8662C144.829 76.8662 150.408 73.1164 154.524 77.2134C158.142 80.8162 150.497 78.3975 147.859 79.1957C145.222 79.9914 141.645 80.1458 144.829 76.8662Z" fill="#41294A"/>
<path d="M130.118 77.7519C130.118 77.7519 124.77 73.679 120.42 77.5252C116.595 80.9085 124.371 78.9456 126.955 79.8981C129.54 80.8482 133.105 81.2147 130.118 77.7519Z" fill="#41294A"/>
<path d="M124.309 81.8495C119.085 81.8495 114.838 85.9465 114.643 91.177C114.443 96.5159 118.62 101.023 123.955 101.223L124.324 101.23C129.548 101.23 133.795 97.1333 133.99 91.9028C134.086 89.3153 133.171 86.846 131.413 84.9482C129.654 83.0504 127.262 81.9532 124.68 81.8567L124.309 81.8495ZM124.324 102.436C124.187 102.436 124.049 102.434 123.91 102.429C117.912 102.202 113.215 97.1357 113.439 91.1312C113.665 85.1122 118.702 80.4364 124.724 80.651C127.629 80.7595 130.319 81.9942 132.294 84.1283C134.272 86.2624 135.3 89.038 135.194 91.9462C134.973 97.8278 130.199 102.436 124.324 102.436Z" fill="#FFFCF6"/>
<path d="M114.045 91.757C113.968 91.757 113.891 91.7425 113.814 91.7111L104.706 87.9348C104.4 87.807 104.253 87.4525 104.381 87.1463C104.509 86.8376 104.86 86.6905 105.166 86.8207L114.276 90.597C114.582 90.7249 114.729 91.0769 114.601 91.3856C114.505 91.6171 114.281 91.757 114.045 91.757Z" fill="#FFFCF6"/>
<path d="M135.191 51.2928C135.191 51.2928 133.827 70.6133 141.254 73.0609C148.68 75.511 163.021 75.265 163.903 72.3134C164.784 69.3642 149.744 45.6235 138.951 41.8158C120.025 35.1409 102.774 63.0775 104.935 70.5C107.095 77.9248 129.643 74.8936 133.112 73.9387C136.583 72.9838 134.497 56.6245 135.191 51.2928Z" fill="#000C3E"/>
<path d="M135.191 91.9486C134.88 91.9486 134.615 91.7075 134.591 91.3916C134.567 91.0588 134.815 90.7694 135.145 90.7429L141.273 90.2775C141.61 90.263 141.894 90.4993 141.921 90.8345C141.945 91.1649 141.697 91.4543 141.364 91.4808L135.239 91.9486C135.222 91.9486 135.205 91.9486 135.191 91.9486Z" fill="#FFFCF6"/>
<path d="M121.128 36.5752C120.988 36.5752 120.848 36.5438 120.716 36.4739C117.108 34.6123 114.954 32.0151 114.323 28.7597C112.929 21.5977 119.439 13.9027 119.719 13.5796C120.044 13.201 120.612 13.16 120.991 13.4807C121.371 13.8063 121.415 14.3778 121.089 14.7564C121.027 14.8287 114.865 22.1185 116.096 28.4197C116.619 31.1012 118.452 33.2715 121.542 34.8679C121.985 35.097 122.161 35.642 121.932 36.0857C121.771 36.3967 121.455 36.5752 121.128 36.5752Z" fill="#000C3E"/>
<path d="M135.462 38.7908C135.204 38.7908 134.946 38.6798 134.768 38.4676C134.448 38.0842 134.498 37.5127 134.881 37.192C134.956 37.1317 142.228 30.9536 142.047 24.5367C141.97 21.8045 140.52 19.3617 137.733 17.2806C137.333 16.9816 137.251 16.4149 137.55 16.0146C137.846 15.6167 138.417 15.5323 138.812 15.8313C142.067 18.2621 143.762 21.1775 143.854 24.4933C144.054 31.7879 136.367 38.3061 136.04 38.581C135.871 38.7208 135.664 38.7908 135.462 38.7908Z" fill="#000C3E"/>
<path d="M164.34 125.286C164.048 125.286 163.762 125.144 163.588 124.884C163.309 124.469 163.422 123.909 163.836 123.63C164.195 123.386 172.689 117.55 171.359 106.59C170.841 102.312 169.67 97.5401 168.43 92.4857C166.274 83.6887 164.041 74.5927 164.605 66.0128C164.636 65.516 165.079 65.1157 165.566 65.1688C166.065 65.2025 166.44 65.6318 166.407 66.1309C165.862 74.4336 168.059 83.3897 170.186 92.054C171.436 97.1615 172.621 101.987 173.151 106.371C174.62 118.459 165.238 124.867 164.838 125.134C164.687 125.236 164.511 125.286 164.34 125.286Z" fill="#000C3E"/>
<path d="M172.131 80.4307C172.091 80.4307 172.05 80.4283 172.004 80.421C171.51 80.3511 171.168 79.8953 171.238 79.401C173.211 65.3904 169.272 54.2736 159.536 46.3617C152.252 40.4416 144.313 38.6354 144.234 38.6185C143.747 38.5124 143.439 38.0301 143.547 37.5406C143.653 37.0535 144.137 36.7472 144.624 36.8533C144.956 36.9257 177.958 44.6375 173.025 79.6518C172.962 80.1051 172.577 80.4307 172.131 80.4307Z" fill="#000C3E"/>
<path d="M139.458 115.902C137.623 115.902 136.202 115.319 136.11 115.28C135.653 115.087 135.436 114.559 135.628 114.099C135.819 113.64 136.346 113.423 136.806 113.611C136.835 113.624 139.572 114.726 141.961 113.542C142.409 113.315 142.949 113.498 143.173 113.947C143.394 114.393 143.214 114.935 142.766 115.157C141.641 115.719 140.485 115.902 139.458 115.902Z" fill="#EE9B68"/>
<path d="M102.261 97.4224C102.174 97.4224 102.085 97.4103 101.998 97.3838C101.519 97.2367 101.252 96.7327 101.396 96.2552C103.215 90.2796 98.8646 86.3104 98.8213 86.2694C98.4479 85.9366 98.4166 85.3651 98.749 84.9937C99.079 84.62 99.6547 84.5862 100.023 84.919C100.24 85.1119 105.277 89.7129 103.126 96.7809C103.008 97.1716 102.649 97.4224 102.261 97.4224Z" fill="#EE9B68"/>
<path d="M161.356 97.599C161.334 97.599 161.313 97.599 161.294 97.5966C160.795 97.5604 160.419 97.1288 160.455 96.632C160.865 90.8518 164.471 87.9243 164.622 87.8037C165.02 87.4926 165.576 87.5577 165.889 87.9484C166.2 88.3366 166.135 88.9057 165.75 89.2168C165.718 89.2433 162.609 91.8067 162.257 96.7574C162.223 97.2349 161.826 97.599 161.356 97.599Z" fill="#EE9B68"/>
<path d="M101.086 140.504C101.086 140.504 132.187 168.134 149.525 160.934C166.861 153.733 171.984 136.817 163.269 134.227C154.555 131.637 87.4571 129.679 101.086 140.504Z" fill="#FFCEB0"/>
<path d="M141.255 112.661C141.154 112.661 141.05 112.644 140.949 112.608C138.119 111.581 136.719 110.33 136.666 108.777C136.582 106.242 140.45 104.465 140.891 104.27C141.344 104.069 141.879 104.274 142.081 104.733C142.281 105.188 142.076 105.724 141.618 105.926C140.33 106.495 138.439 107.778 138.473 108.716C138.494 109.396 139.651 110.214 141.561 110.906C142.03 111.077 142.274 111.596 142.105 112.063C141.97 112.432 141.623 112.661 141.255 112.661Z" fill="#EE9B68"/>
<path d="M126.957 94.0383C126.673 94.0383 126.389 93.937 126.16 93.7369C122.128 90.1679 119.321 91.0939 119.203 91.1325C118.584 91.3544 117.895 91.0337 117.667 90.4187C117.438 89.8014 117.736 89.119 118.348 88.8802C118.517 88.8127 122.547 87.32 127.754 91.9283C128.253 92.3696 128.301 93.134 127.86 93.6308C127.622 93.9009 127.289 94.0383 126.957 94.0383Z" fill="#41294A"/>
<path d="M148.215 94.2638C147.882 94.2638 147.552 94.1263 147.311 93.8563C146.871 93.3571 146.919 92.5951 147.417 92.1538C152.632 87.5407 156.655 89.0382 156.823 89.1057C157.442 89.3469 157.751 90.0462 157.507 90.6659C157.269 91.2832 156.58 91.5871 155.966 91.358C155.821 91.3074 153.022 90.4151 149.012 93.9624C148.783 94.1625 148.499 94.2638 148.215 94.2638Z" fill="#41294A"/>
<path d="M223.55 113.261L200.715 106.659L194.031 115.309L177.883 113.601L196.912 122.939L203.555 112.063L223.55 113.261Z" fill="#000C3E"/>
<path d="M203.717 96.628L189.298 96.8523L186.95 103.057L177.276 104.933L189.973 106.973L191.902 99.4832L203.717 96.628Z" fill="#000C3E"/>
<path d="M151.53 80.3135C146.305 80.3135 142.059 84.4105 141.864 89.641C141.664 94.9823 145.84 99.4869 151.176 99.6871L151.544 99.6943C156.769 99.6943 161.016 95.5972 161.211 90.3668C161.411 85.0279 157.231 80.5209 151.898 80.3207L151.53 80.3135ZM151.544 100.9C151.405 100.9 151.267 100.898 151.128 100.893C145.132 100.666 140.435 95.5997 140.659 89.5976C140.886 83.5762 145.918 78.9052 151.947 79.115C157.942 79.3417 162.637 84.4081 162.415 90.4102C162.196 96.2917 157.419 100.9 151.544 100.9Z" fill="#FFFCF6"/>
<path d="M116.465 182.964C116.465 182.964 134.774 161.37 150.763 131.962C157.028 120.435 168.766 117.636 169.192 119.251C169.618 120.869 162.371 127.617 162.371 127.617C162.371 127.617 172.03 120.488 173.595 122.813C175.161 125.138 167.275 132.198 167.275 132.198C167.275 132.198 174.308 128.126 177.293 129.833C180.277 131.54 168.978 133.708 169.192 139.65C172.473 230.899 129.487 223.788 129.487 223.788L116.465 182.964Z" fill="#FFBD96"/>
<path d="M134.778 162.273C134.665 162.273 134.549 162.251 134.436 162.206C133.976 162.018 133.754 161.489 133.942 161.026C144.463 135.241 150.936 131.472 151.205 131.325C151.644 131.084 152.19 131.25 152.431 131.684C152.67 132.12 152.511 132.665 152.082 132.907C151.959 132.981 145.718 136.946 135.614 161.711C135.471 162.061 135.132 162.273 134.778 162.273Z" fill="#EE9B68"/>
<path d="M106.854 199.223L44.7807 204.179C44.7807 204.179 42.6972 174.426 51.6504 159.065C60.6036 143.704 85.5652 136.754 89.7396 135.894C93.9139 135.033 106.854 199.223 106.854 199.223Z" fill="#FB4C47"/>
<path d="M178.28 136.378C178.28 136.378 200.62 141.218 204.915 164.873C207.663 179.996 211.52 228.337 211.52 228.337L201.534 232.165L192.358 234.899L173.039 239.274L178.28 136.378Z" fill="#D9423D"/>
<path d="M114.038 179.119C114.038 179.119 140.578 222.634 131.35 223.84C122.122 225.046 75.1517 228.663 62.5059 223.84C49.86 219.017 43.4167 213.051 45.0257 199.774C43.6064 179.119 50.3813 153.836 53.7487 159.56C70.8699 188.669 114.038 179.119 114.038 179.119Z" fill="#D9423D"/>
<path d="M111.388 180.326C93.8521 180.326 77.9762 162.918 77.309 162.177C76.8634 161.683 76.9019 160.919 77.3957 160.475C77.8895 160.029 78.6507 160.067 79.0963 160.562C79.2529 160.735 94.9312 177.914 111.388 177.914C112.052 177.914 112.592 178.455 112.592 179.12C112.592 179.786 112.052 180.326 111.388 180.326Z" fill="#B43936"/>
<path d="M181.789 223.37H181.76C181.096 223.353 180.568 222.801 180.585 222.136C180.592 221.827 181.31 191.187 180.587 177.444C179.908 164.536 176.57 161.637 176.536 161.608C176.032 161.193 175.938 160.443 176.338 159.927C176.733 159.416 177.458 159.298 177.988 159.684C178.422 160.005 182.249 163.205 182.991 177.316C183.721 191.153 183.001 221.885 182.994 222.193C182.977 222.849 182.442 223.37 181.789 223.37Z" fill="#B43936"/>
<path d="M132.501 14.1986C132.184 14.1986 131.84 14.2354 131.467 14.3091C130.558 14.4915 129.969 14.9332 129.616 15.6998C128.039 19.112 131.363 27.2391 133.738 32.0404C135.206 26.7141 136.965 17.8108 134.479 15.0052C134.001 14.4659 133.349 14.1986 132.501 14.1986ZM134.015 36.048C133.62 36.048 133.25 35.8351 133.055 35.483C132.215 33.977 124.929 20.602 127.618 14.778C128.265 13.3776 129.447 12.4685 131.037 12.1516C133.745 11.6123 135.3 12.6126 136.126 13.5456C140.444 18.4206 135.625 33.5801 135.062 35.2926C134.924 35.7071 134.556 36.0016 134.121 36.0432C134.086 36.0464 134.05 36.048 134.015 36.048Z" fill="#FFD310"/>
<path d="M147.333 19.6109C147.229 19.6109 147.124 19.6173 147.018 19.6333C143.3 20.1278 138.808 28.0132 136.433 33.0018C141.37 30.9229 149.201 26.9521 150.241 23.3415C150.475 22.5285 150.318 21.8099 149.75 21.0769C148.985 20.0926 148.193 19.6109 147.333 19.6109ZM134.322 36.1179C134.026 36.1179 133.736 35.9995 133.526 35.7786C133.224 35.4617 133.137 34.9976 133.305 34.5943C134 32.9314 140.271 18.3129 146.727 17.4519C147.964 17.287 149.793 17.5463 151.486 19.7261C152.482 21.0065 152.783 22.4677 152.356 23.9497C150.579 30.113 136.317 35.4617 134.698 36.0523C134.575 36.0971 134.448 36.1179 134.322 36.1179Z" fill="#FFD310"/>
<path d="M113.666 32.2316C119.011 35.6672 131.226 38.3394 140.77 32.2316" stroke="#FFD310" stroke-width="1.63065"/>
<defs>
<linearGradient id="paint0_linear" x1="10.6625" y1="192.938" x2="25.5753" y2="244.719" gradientUnits="userSpaceOnUse">
<stop stop-color="#FFD8D8"/>
<stop offset="1" stop-color="#FFF8F8"/>
</linearGradient>
<linearGradient id="paint1_linear" x1="259.25" y1="80.4139" x2="102.754" y2="-18.38" gradientUnits="userSpaceOnUse">
<stop stop-color="#FFF8F8"/>
<stop offset="1" stop-color="#FFCFCF"/>
</linearGradient>
<linearGradient id="paint2_linear" x1="253.802" y1="56.2982" x2="196.538" y2="31.8394" gradientUnits="userSpaceOnUse">
<stop stop-color="#FFD7D7"/>
<stop offset="1" stop-color="#FFF9F9"/>
</linearGradient>
<linearGradient id="paint3_linear" x1="241.159" y1="217.31" x2="10.9514" y2="83.9979" gradientUnits="userSpaceOnUse">
<stop stop-color="#FFCFCF"/>
<stop offset="1" stop-color="#FFF8F8"/>
</linearGradient>
</defs>
</svg>
