<svg width="195" height="73" viewBox="0 0 195 73" fill="none" xmlns="http://www.w3.org/2000/svg">
<g filter="url(#filter0_d)">
<path d="M88.847 38.644C89.5437 38.644 90.196 38.4983 90.804 38.207C91.412 37.9157 91.9503 37.4977 92.419 36.953L94.224 38.739C93.5907 39.4863 92.78 40.0817 91.792 40.525C90.8167 40.9683 89.8097 41.19 88.771 41.19C87.7703 41.19 86.833 41.0127 85.959 40.658C85.0977 40.3033 84.3503 39.822 83.717 39.214C83.0837 38.606 82.5833 37.884 82.216 37.048C81.8613 36.212 81.684 35.3127 81.684 34.35C81.684 33.3873 81.8677 32.488 82.235 31.652C82.6023 30.8033 83.1027 30.075 83.736 29.467C84.3693 28.859 85.1167 28.3777 85.978 28.023C86.852 27.6683 87.783 27.491 88.771 27.491C89.835 27.491 90.8673 27.719 91.868 28.175C92.8687 28.6183 93.6793 29.22 94.3 29.98L92.438 31.823C91.9693 31.2403 91.4183 30.797 90.785 30.493C90.1517 30.1763 89.4803 30.018 88.771 30.018C88.1757 30.018 87.612 30.132 87.08 30.36C86.5607 30.5753 86.111 30.8793 85.731 31.272C85.351 31.652 85.0533 32.108 84.838 32.64C84.6227 33.1593 84.515 33.7293 84.515 34.35C84.515 34.958 84.6227 35.528 84.838 36.06C85.066 36.5793 85.37 37.029 85.75 37.409C86.1427 37.789 86.5987 38.093 87.118 38.321C87.65 38.5363 88.2263 38.644 88.847 38.644ZM109.03 34.35C109.03 35.3 108.846 36.1993 108.479 37.048C108.111 37.884 107.611 38.6123 106.978 39.233C106.357 39.841 105.616 40.3223 104.755 40.677C103.893 41.0317 102.969 41.209 101.981 41.209C101.005 41.209 100.087 41.0317 99.2256 40.677C98.3643 40.3223 97.6169 39.841 96.9836 39.233C96.3629 38.6123 95.8689 37.884 95.5016 37.048C95.1343 36.1993 94.9506 35.3 94.9506 34.35C94.9506 33.4 95.1343 32.507 95.5016 31.671C95.8689 30.8223 96.3629 30.094 96.9836 29.486C97.6169 28.8653 98.3643 28.3777 99.2256 28.023C100.087 27.6683 101.005 27.491 101.981 27.491C102.969 27.491 103.893 27.6683 104.755 28.023C105.616 28.3777 106.357 28.8653 106.978 29.486C107.611 30.094 108.111 30.8223 108.479 31.671C108.846 32.507 109.03 33.4 109.03 34.35ZM106.199 34.35C106.199 33.7293 106.091 33.1593 105.876 32.64C105.66 32.108 105.363 31.652 104.983 31.272C104.615 30.8793 104.172 30.5753 103.653 30.36C103.133 30.132 102.576 30.018 101.981 30.018C101.385 30.018 100.828 30.132 100.309 30.36C99.8019 30.5753 99.3586 30.8793 98.9786 31.272C98.6113 31.652 98.3199 32.108 98.1046 32.64C97.8893 33.1593 97.7816 33.7293 97.7816 34.35C97.7816 34.958 97.8893 35.528 98.1046 36.06C98.3199 36.592 98.6113 37.0543 98.9786 37.447C99.3586 37.827 99.8019 38.131 100.309 38.359C100.828 38.5743 101.385 38.682 101.981 38.682C102.576 38.682 103.133 38.5743 103.653 38.359C104.172 38.131 104.615 37.827 104.983 37.447C105.363 37.0543 105.66 36.592 105.876 36.06C106.091 35.528 106.199 34.958 106.199 34.35ZM114.3 41L108.904 27.7H111.887L115.953 38.207L120.114 27.7H122.964L117.492 41H114.3ZM124.093 41V27.7H126.848V41H124.093ZM129.27 41V27.7H134.381C135.369 27.7 136.294 27.871 137.155 28.213C138.017 28.555 138.758 29.0237 139.378 29.619C140.012 30.2143 140.506 30.9237 140.86 31.747C141.228 32.5703 141.411 33.4507 141.411 34.388C141.411 35.3127 141.228 36.1803 140.86 36.991C140.506 37.8017 140.012 38.5047 139.378 39.1C138.758 39.6827 138.017 40.145 137.155 40.487C136.294 40.829 135.369 41 134.381 41H129.27ZM134.362 30.151H132.025V38.549H134.362C134.945 38.549 135.49 38.4413 135.996 38.226C136.516 38.0107 136.965 37.7193 137.345 37.352C137.725 36.972 138.023 36.5287 138.238 36.022C138.454 35.5153 138.561 34.9707 138.561 34.388C138.561 33.7927 138.454 33.2353 138.238 32.716C138.023 32.1967 137.725 31.747 137.345 31.367C136.965 30.987 136.516 30.6893 135.996 30.474C135.49 30.2587 134.945 30.151 134.362 30.151ZM146.702 34.483H153.846V36.687H146.702V34.483ZM164.071 27.7V41H161.468V30.341L158.865 31.405V29.144L162.418 27.7H164.071ZM170.676 27.472C171.55 27.472 172.348 27.6367 173.07 27.966C173.792 28.2827 174.406 28.7323 174.913 29.315C175.432 29.885 175.831 30.5753 176.11 31.386C176.401 32.1967 176.547 33.0897 176.547 34.065C176.547 35.129 176.389 36.1043 176.072 36.991C175.755 37.865 175.312 38.6123 174.742 39.233C174.172 39.8537 173.482 40.335 172.671 40.677C171.86 41.019 170.967 41.19 169.992 41.19C169.27 41.19 168.554 41.076 167.845 40.848C167.136 40.6073 166.54 40.2907 166.059 39.898L167.541 38.036C167.934 38.34 168.345 38.5617 168.776 38.701C169.207 38.8403 169.675 38.91 170.182 38.91C171.322 38.91 172.215 38.5237 172.861 37.751C173.52 36.9657 173.881 35.8573 173.944 34.426C173.513 34.9073 172.981 35.2873 172.348 35.566C171.715 35.832 171.043 35.965 170.334 35.965C169.663 35.965 169.042 35.8637 168.472 35.661C167.902 35.4583 167.408 35.1797 166.99 34.825C166.585 34.4577 166.268 34.027 166.04 33.533C165.812 33.0263 165.698 32.4753 165.698 31.88C165.698 31.2467 165.825 30.664 166.078 30.132C166.331 29.5873 166.673 29.1187 167.104 28.726C167.547 28.3333 168.073 28.0293 168.681 27.814C169.302 27.586 169.967 27.472 170.676 27.472ZM170.752 33.913C171.347 33.913 171.898 33.7863 172.405 33.533C172.924 33.2797 173.387 32.9187 173.792 32.45C173.589 31.614 173.222 30.9427 172.69 30.436C172.158 29.9293 171.525 29.676 170.79 29.676C170.068 29.676 169.46 29.8787 168.966 30.284C168.485 30.6893 168.244 31.2023 168.244 31.823C168.244 32.4437 168.478 32.9503 168.947 33.343C169.416 33.723 170.017 33.913 170.752 33.913Z" fill="#035755"/>
<path d="M48.9204 33.4997C48.9204 34.5498 49.7716 35.4012 50.8218 35.4012H55.1462C57.3476 35.4012 59.5224 35.9058 61.4878 36.8974C62.0737 37.1931 62.7468 37.3414 63.4583 37.2939C65.3433 37.168 66.8715 35.6348 66.9919 33.7494C67.1331 31.5359 65.3801 29.697 63.197 29.697C62.6057 29.697 62.0459 29.832 61.547 30.0729C59.5443 31.0398 57.3693 31.5984 55.1454 31.5984H50.8218C49.7718 31.5983 48.9204 32.4497 48.9204 33.4997Z" fill="#FB4C47"/>
<path d="M23.154 45.8447C22.5401 45.2308 21.5448 45.2308 20.9309 45.8447L18.4028 48.3728C17.1159 49.6597 15.5495 50.6361 13.8208 51.2054C13.3054 51.3751 12.8253 51.6818 12.4372 52.1255C11.4088 53.3011 11.4116 55.0908 12.4435 56.2634C13.6549 57.6401 15.7547 57.6903 17.031 56.414C17.3766 56.0684 17.6249 55.6622 17.7759 55.2297C18.3814 53.4937 19.3264 51.8957 20.6265 50.5956L23.1541 48.068C23.7678 47.4539 23.7678 46.4586 23.154 45.8447Z" fill="#FB4C47"/>
<path d="M45.9569 23.0433C46.5993 23.6857 47.6408 23.6857 48.2832 23.0433L50.9287 20.3979C52.2754 19.0512 53.9145 18.0295 55.7234 17.4337C56.2627 17.2561 56.7652 16.9351 57.1713 16.4708C58.2474 15.2406 58.2445 13.3678 57.1646 12.1408C55.897 10.7003 53.6996 10.6478 52.3641 11.9832C52.0024 12.3449 51.7426 12.7699 51.5847 13.2225C50.951 15.0391 49.9622 16.7113 48.6018 18.0718L45.9568 20.7168C45.3145 21.3594 45.3145 22.4008 45.9569 23.0433Z" fill="#FB4C47"/>
<path d="M35.4989 46.9199C34.4488 46.9199 33.5975 47.7712 33.5975 48.8213V53.1457C33.5975 55.3471 33.0929 57.5219 32.1012 59.4873C31.8055 60.0732 31.6573 60.7463 31.7048 61.4577C31.8307 63.3428 33.3638 64.871 35.2492 64.9914C37.4627 65.1326 39.3016 63.3796 39.3016 61.1965C39.3016 60.6052 39.1666 60.0454 38.9257 59.5465C37.9588 57.5438 37.4002 55.3688 37.4002 53.1449V48.8213C37.4003 47.7713 36.549 46.9199 35.4989 46.9199Z" fill="#FFA2A1"/>
<path d="M38.9285 59.5466C37.9616 57.5439 37.4029 55.369 37.4029 53.145V48.8213C37.4029 47.7713 36.5517 46.9199 35.5015 46.9199C34.4513 46.9199 33.6001 47.7712 33.6001 48.8213V53.145C33.6001 55.369 34.1587 57.5438 35.1256 59.5466C35.3665 60.0456 35.5015 60.6053 35.5015 61.1967C35.5015 62.6031 34.7377 63.8301 33.6028 64.488C34.0951 64.7743 34.6558 64.9535 35.252 64.9915C37.4655 65.1328 39.3044 63.3797 39.3044 61.1967C39.3044 60.6053 39.1694 60.0456 38.9285 59.5466Z" fill="#FB4C47"/>
<path d="M21.3091 25.647C24.7395 25.647 27.5203 22.8662 27.5203 19.4358C27.5203 16.0055 24.7395 13.2246 21.3091 13.2246C17.8788 13.2246 15.0979 16.0055 15.0979 19.4358C15.0979 22.8662 17.8788 25.647 21.3091 25.647Z" fill="#FF807E"/>
<path d="M21.3082 13.2246C20.6448 13.2246 20.0062 13.3297 19.4067 13.5223C21.9068 14.3255 23.7165 16.6689 23.7165 19.4358C23.7165 22.2028 21.9068 24.5462 19.4067 25.3494C20.0061 25.542 20.6447 25.647 21.3082 25.647C24.7385 25.647 27.5194 22.8662 27.5194 19.4358C27.5194 16.0054 24.7384 13.2246 21.3082 13.2246Z" fill="#FB4C47"/>
<path d="M35.5002 53.7812C46.7014 53.7812 55.7817 44.7009 55.7817 33.4997C55.7817 22.2986 46.7014 13.2183 35.5002 13.2183C24.2991 13.2183 15.2188 22.2986 15.2188 33.4997C15.2188 44.7009 24.2991 53.7812 35.5002 53.7812Z" fill="#FFBFBE"/>
<path d="M35.5015 13.2183C34.8602 13.2183 34.2263 13.2494 33.6001 13.3077C43.9095 14.2665 51.9803 22.94 51.9803 33.4997C51.9803 44.0595 43.9096 52.733 33.6002 53.6918C34.2263 53.75 34.8603 53.7812 35.5016 53.7812C46.7029 53.7812 55.7831 44.701 55.7831 33.4997C55.7831 22.2985 46.7027 13.2183 35.5015 13.2183Z" fill="#FFA2A2"/>
<path d="M43.1036 30.6866C45.3788 30.6866 47.2233 28.8422 47.2233 26.567C47.2233 24.2917 45.3788 22.4473 43.1036 22.4473C40.8283 22.4473 38.9839 24.2917 38.9839 26.567C38.9839 28.8422 40.8283 30.6866 43.1036 30.6866Z" fill="#FFA2A1"/>
<path d="M43.1065 22.4473C42.4204 22.4473 41.774 22.616 41.2051 22.9126C42.523 23.5998 43.4234 24.9778 43.4234 26.567C43.4234 28.1561 42.523 29.5342 41.2051 30.2213C41.774 30.5179 42.4204 30.6866 43.1065 30.6866C45.3818 30.6866 47.2262 28.8422 47.2262 26.567C47.2262 24.2917 45.3818 22.4473 43.1065 22.4473Z" fill="#FF807E"/>
<path d="M28.2484 44.2112C29.7886 44.2112 31.0371 42.9627 31.0371 41.4225C31.0371 39.8823 29.7886 38.6338 28.2484 38.6338C26.7083 38.6338 25.4597 39.8823 25.4597 41.4225C25.4597 42.9627 26.7083 44.2112 28.2484 44.2112Z" fill="#FF807E"/>
<path d="M49.2971 52.3442C51.3973 52.3442 53.0998 50.6417 53.0998 48.5415C53.0998 46.4413 51.3973 44.7388 49.2971 44.7388C47.1969 44.7388 45.4944 46.4413 45.4944 48.5415C45.4944 50.6417 47.1969 52.3442 49.2971 52.3442Z" fill="#FB4C47"/>
<path d="M49.2977 44.7388C48.6048 44.7388 47.9557 44.9251 47.3962 45.2488C48.5326 45.9063 49.2977 47.1342 49.2977 48.5416C49.2977 49.949 48.5326 51.1768 47.3962 51.8344C47.9557 52.1582 48.6048 52.3445 49.2977 52.3445C51.3979 52.3445 53.1004 50.6419 53.1004 48.5417C53.1004 46.4416 51.3979 44.7388 49.2977 44.7388Z" fill="#FF807E"/>
<path d="M22.0794 33.4997C22.0794 34.5498 21.2282 35.4012 20.178 35.4012H15.8537C13.6523 35.4012 11.4775 35.9058 9.51205 36.8974C8.92611 37.1931 8.25305 37.3414 7.5416 37.2939C5.65654 37.168 4.12832 35.6348 4.00798 33.7494C3.86672 31.5359 5.61975 29.697 7.80283 29.697C8.39418 29.697 8.95392 29.832 9.45287 30.0729C11.4556 31.0398 13.6305 31.5984 15.8544 31.5984H20.1781C21.2281 31.5983 22.0794 32.4497 22.0794 33.4997Z" fill="#FB4C47"/>
<path d="M35.4988 20.0794C36.5488 20.0794 37.4002 19.2282 37.4002 18.178V13.8537C37.4002 11.6523 37.9048 9.47746 38.8964 7.51205C39.1921 6.92611 39.3404 6.25305 39.2929 5.5416C39.167 3.65654 37.6339 2.12832 35.7484 2.00798C33.535 1.86672 31.696 3.61975 31.696 5.80283C31.696 6.39418 31.831 6.95392 32.0719 7.45287C33.0388 9.45556 33.5975 11.6305 33.5975 13.8544V18.1781C33.5973 19.2281 34.4487 20.0794 35.4988 20.0794Z" fill="#FFA2A1"/>
<path d="M39.2938 5.54159C39.168 3.65653 37.6348 2.12831 35.7494 2.00797C34.9619 1.95764 34.2225 2.14812 33.5957 2.51147C34.6605 3.13076 35.4048 4.25256 35.491 5.54159C35.5385 6.25304 35.3902 6.9261 35.0945 7.51204C34.1029 9.47745 33.5983 11.6523 33.5983 13.8537V18.178C33.5983 19.2281 34.4495 20.0794 35.4997 20.0794C36.5499 20.0794 37.4011 19.2282 37.4011 18.178V13.8537C37.4011 11.6523 37.9058 9.47745 38.8974 7.51204C39.1931 6.9261 39.3415 6.25304 39.2938 5.54159Z" fill="#FB4C47"/>
<path d="M63.2006 29.6992C62.6096 29.6992 62.0502 29.8341 61.5515 30.0749C61.4633 30.1175 61.3742 30.1583 61.2854 30.1993C62.4964 30.8925 63.2894 32.2329 63.1926 33.7493C63.1098 35.0462 62.3604 36.1761 61.2871 36.7957C61.3555 36.8288 61.4243 36.8612 61.4922 36.8954C62.0779 37.1908 62.7505 37.3391 63.4616 37.2916C65.3455 37.1657 66.8729 35.6336 66.9931 33.7493C67.1344 31.537 65.3823 29.6992 63.2006 29.6992Z" fill="#FF807E"/>
</g>
<defs>
<filter id="filter0_d" x="0" y="2" width="180.547" height="70.9995" filterUnits="userSpaceOnUse" color-interpolation-filters="sRGB">
<feFlood flood-opacity="0" result="BackgroundImageFix"/>
<feColorMatrix in="SourceAlpha" type="matrix" values="0 0 0 0 0 0 0 0 0 0 0 0 0 0 0 0 0 0 127 0"/>
<feOffset dy="4"/>
<feGaussianBlur stdDeviation="2"/>
<feColorMatrix type="matrix" values="0 0 0 0 0 0 0 0 0 0 0 0 0 0 0 0 0 0 0.25 0"/>
<feBlend mode="normal" in2="BackgroundImageFix" result="effect1_dropShadow"/>
<feBlend mode="normal" in="SourceGraphic" in2="effect1_dropShadow" result="shape"/>
</filter>
</defs>
</svg>
